<?xml version="1.0" standalone="no"?><!DOCTYPE svg PUBLIC "-//W3C//DTD SVG 1.1//EN" "http://www.w3.org/Graphics/SVG/1.1/DTD/svg11.dtd"><svg t="1603603883574" class="icon" viewBox="0 0 1024 1024" version="1.1" xmlns="http://www.w3.org/2000/svg" p-id="5633" xmlns:xlink="http://www.w3.org/1999/xlink" width="200" height="200"><defs><style type="text/css"></style></defs><path d="M352.124 962c-59.598-125.442-28.224-197.568 18.81-263.412 50.166-75.276 62.712-147.384 62.712-147.384s40.77 50.166 25.092 131.706c68.994-78.39 81.54-203.832 72.126-250.884C687.644 541.79 756.656 783.26 665.702 958.868c482.922-275.958 119.16-686.754 56.448-730.656 21.96 47.034 25.092 125.424-18.828 163.062C631.214 115.316 452.456 62 452.456 62c21.942 141.12-75.276 294.768-169.344 410.814-3.132-56.448-6.282-94.086-37.638-150.534-6.264 103.5-84.672 185.022-106.614 288.504C110.636 751.904 160.82 852.236 352.124 962z" p-id="5634" fill="#ffffff"></path></svg>